<svg width="99" height="122" viewBox="0 0 99 122" fill="none" xmlns="http://www.w3.org/2000/svg">
<path d="M38.2224 109.002H43.6224V110.802H40.2024V114.132H42.9204V115.932H40.2024V119.802H43.6224V121.602H38.2224V109.002Z" fill="#004589"/>
<path d="M44.7614 109.002H47.5874L48.8474 118.02H48.8834L50.1434 109.002H52.9694V121.602H51.0974V112.062H51.0614L49.6214 121.602H47.9654L46.5254 112.062H46.4894V121.602H44.7614V109.002Z" fill="#004589"/>
<path d="M54.447 109.002H57.363C58.347 109.002 59.085 109.266 59.577 109.794C60.069 110.322 60.315 111.096 60.315 112.116V113.358C60.315 114.378 60.069 115.152 59.577 115.68C59.085 116.208 58.347 116.472 57.363 116.472H56.427V121.602H54.447V109.002ZM57.363 114.672C57.687 114.672 57.927 114.582 58.083 114.402C58.251 114.222 58.335 113.916 58.335 113.484V111.99C58.335 111.558 58.251 111.252 58.083 111.072C57.927 110.892 57.687 110.802 57.363 110.802H56.427V114.672H57.363Z" fill="#004589"/>
<path d="M61.3903 109.002H64.3243C65.3443 109.002 66.0883 109.242 66.5563 109.722C67.0243 110.19 67.2583 110.916 67.2583 111.9V112.674C67.2583 113.982 66.8263 114.81 65.9623 115.158V115.194C66.4423 115.338 66.7783 115.632 66.9703 116.076C67.1743 116.52 67.2763 117.114 67.2763 117.858V120.072C67.2763 120.432 67.2883 120.726 67.3123 120.954C67.3363 121.17 67.3963 121.386 67.4923 121.602H65.4763C65.4043 121.398 65.3563 121.206 65.3323 121.026C65.3083 120.846 65.2963 120.522 65.2963 120.054V117.75C65.2963 117.174 65.2003 116.772 65.0083 116.544C64.8283 116.316 64.5103 116.202 64.0543 116.202H63.3703V121.602H61.3903V109.002ZM64.0903 114.402C64.4863 114.402 64.7803 114.3 64.9723 114.096C65.1763 113.892 65.2783 113.55 65.2783 113.07V112.098C65.2783 111.642 65.1943 111.312 65.0263 111.108C64.8703 110.904 64.6183 110.802 64.2703 110.802H63.3703V114.402H64.0903Z" fill="#004589"/>
<path d="M68.6501 109.002H74.0501V110.802H70.6301V114.132H73.3481V115.932H70.6301V119.802H74.0501V121.602H68.6501V109.002Z" fill="#004589"/>
<path d="M77.7983 121.782C76.8383 121.782 76.1123 121.512 75.6203 120.972C75.1283 120.42 74.8823 119.634 74.8823 118.614V117.894H76.7543V118.758C76.7543 119.574 77.0963 119.982 77.7803 119.982C78.1163 119.982 78.3683 119.886 78.5363 119.694C78.7163 119.49 78.8063 119.166 78.8063 118.722C78.8063 118.194 78.6863 117.732 78.4463 117.336C78.2063 116.928 77.7623 116.442 77.1143 115.878C76.2983 115.158 75.7283 114.51 75.4043 113.934C75.0803 113.346 74.9183 112.686 74.9183 111.954C74.9183 110.958 75.1703 110.19 75.6743 109.65C76.1783 109.098 76.9103 108.822 77.8703 108.822C78.8183 108.822 79.5323 109.098 80.0123 109.65C80.5043 110.19 80.7503 110.97 80.7503 111.99V112.512H78.8783V111.864C78.8783 111.432 78.7943 111.12 78.6263 110.928C78.4583 110.724 78.2123 110.622 77.8883 110.622C77.2283 110.622 76.8983 111.024 76.8983 111.828C76.8983 112.284 77.0183 112.71 77.2583 113.106C77.5103 113.502 77.9603 113.982 78.6083 114.546C79.4363 115.266 80.0063 115.92 80.3183 116.508C80.6303 117.096 80.7863 117.786 80.7863 118.578C80.7863 119.61 80.5283 120.402 80.0123 120.954C79.5083 121.506 78.7703 121.782 77.7983 121.782Z" fill="#004589"/>
<path d="M83.3989 109.002H86.0809L88.1329 121.602H86.1529L85.7929 119.1V119.136H83.5429L83.1829 121.602H81.3469L83.3989 109.002ZM85.5589 117.426L84.6769 111.198H84.6409L83.7769 117.426H85.5589Z" fill="#004589"/>
<path d="M91.6147 121.782C90.6547 121.782 89.9287 121.512 89.4367 120.972C88.9447 120.42 88.6987 119.634 88.6987 118.614V117.894H90.5707V118.758C90.5707 119.574 90.9127 119.982 91.5967 119.982C91.9327 119.982 92.1847 119.886 92.3527 119.694C92.5327 119.49 92.6227 119.166 92.6227 118.722C92.6227 118.194 92.5027 117.732 92.2627 117.336C92.0227 116.928 91.5787 116.442 90.9307 115.878C90.1147 115.158 89.5447 114.51 89.2207 113.934C88.8967 113.346 88.7347 112.686 88.7347 111.954C88.7347 110.958 88.9867 110.19 89.4907 109.65C89.9947 109.098 90.7267 108.822 91.6867 108.822C92.6347 108.822 93.3487 109.098 93.8287 109.65C94.3207 110.19 94.5667 110.97 94.5667 111.99V112.512H92.6947V111.864C92.6947 111.432 92.6107 111.12 92.4427 110.928C92.2747 110.724 92.0287 110.622 91.7047 110.622C91.0447 110.622 90.7147 111.024 90.7147 111.828C90.7147 112.284 90.8347 112.71 91.0747 113.106C91.3267 113.502 91.7767 113.982 92.4247 114.546C93.2527 115.266 93.8227 115.92 94.1347 116.508C94.4467 117.096 94.6027 117.786 94.6027 118.578C94.6027 119.61 94.3447 120.402 93.8287 120.954C93.3247 121.506 92.5867 121.782 91.6147 121.782Z" fill="#004589"/>
<path d="M5.22823 109.002H8.14423C9.12823 109.002 9.86623 109.266 10.3582 109.794C10.8502 110.322 11.0962 111.096 11.0962 112.116V113.358C11.0962 114.378 10.8502 115.152 10.3582 115.68C9.86623 116.208 9.12823 116.472 8.14423 116.472H7.20823V121.602H5.22823V109.002ZM8.14423 114.672C8.46824 114.672 8.70823 114.582 8.86423 114.402C9.03224 114.222 9.11623 113.916 9.11623 113.484V111.99C9.11623 111.558 9.03224 111.252 8.86423 111.072C8.70823 110.892 8.46824 110.802 8.14423 110.802H7.20823V114.672H8.14423Z" fill="#1B1918"/>
<path d="M13.0688 109.002H15.7508L17.8028 121.602H15.8228L15.4628 119.1V119.136H13.2128L12.8528 121.602H11.0168L13.0688 109.002ZM15.2288 117.426L14.3468 111.198H14.3108L13.4468 117.426H15.2288Z" fill="#1B1918"/>
<path d="M18.7634 109.002H21.6974C22.7174 109.002 23.4614 109.242 23.9294 109.722C24.3974 110.19 24.6314 110.916 24.6314 111.9V112.674C24.6314 113.982 24.1994 114.81 23.3354 115.158V115.194C23.8154 115.338 24.1514 115.632 24.3434 116.076C24.5474 116.52 24.6494 117.114 24.6494 117.858V120.072C24.6494 120.432 24.6614 120.726 24.6854 120.954C24.7094 121.17 24.7694 121.386 24.8654 121.602H22.8494C22.7774 121.398 22.7294 121.206 22.7054 121.026C22.6814 120.846 22.6694 120.522 22.6694 120.054V117.75C22.6694 117.174 22.5734 116.772 22.3814 116.544C22.2014 116.316 21.8834 116.202 21.4274 116.202H20.7434V121.602H18.7634V109.002ZM21.4634 114.402C21.8594 114.402 22.1534 114.3 22.3454 114.096C22.5494 113.892 22.6514 113.55 22.6514 113.07V112.098C22.6514 111.642 22.5674 111.312 22.3994 111.108C22.2434 110.904 21.9914 110.802 21.6434 110.802H20.7434V114.402H21.4634Z" fill="#1B1918"/>
<path d="M27.5532 109.002H30.2352L32.2872 121.602H30.3072L29.9472 119.1V119.136H27.6972L27.3372 121.602H25.5012L27.5532 109.002ZM29.7132 117.426L28.8312 111.198H28.7952L27.9312 117.426H29.7132Z" fill="#1B1918"/>
<path fill-rule="evenodd" clip-rule="evenodd" d="M0 21.4811L0.00642822 66.2235L47.0266 83.0977L47.2098 39.2362L0 21.4811Z" fill="#1B1918"/>
<path fill-rule="evenodd" clip-rule="evenodd" d="M10.3185 64.8256L13.0616 66.5513C12.6403 67.7053 11.9416 68.423 10.9618 68.7057C9.9854 68.9869 8.74112 68.8572 7.23571 68.3164C5.37429 67.6479 3.84284 66.5549 2.64428 65.0417C1.44566 63.5256 0.844823 61.8262 0.844823 59.9474C0.844823 57.9573 1.44915 56.6296 2.65419 55.96C3.85918 55.2935 5.44281 55.3113 7.40879 56.0175C9.12319 56.6332 10.5177 57.5656 11.5888 58.816C12.2289 59.5552 12.7056 60.4613 13.0256 61.5338L10.2205 61.0967C10.0573 60.4174 9.71105 59.8031 9.18214 59.2541C8.65625 58.7062 8.0162 58.2981 7.26513 58.0282C6.22666 57.6553 5.38099 57.6688 4.7342 58.0739C4.08759 58.4763 3.7644 59.3901 3.7644 60.8152C3.7644 62.3266 4.08116 63.5176 4.72125 64.3877C5.35794 65.2594 6.18747 65.8775 7.20638 66.2434C7.96076 66.5145 8.60727 66.5433 9.14946 66.3289C9.69141 66.1173 10.0801 65.6139 10.3185 64.8256ZM14.9198 64.9697C14.9198 63.7506 15.1321 62.8053 15.5598 62.1322C15.8798 61.6403 16.3141 61.2481 16.8661 60.962C17.4179 60.6786 18.0221 60.5367 18.6785 60.5386C19.5537 60.5355 20.5595 60.7412 21.7024 61.1517C23.7696 61.8942 25.422 63.0333 26.6629 64.5728C27.904 66.1097 28.5243 67.8524 28.5243 69.798C28.5243 71.7296 27.9072 73.0166 26.6761 73.6656C25.4449 74.3115 23.799 74.2659 21.7417 73.527C19.6549 72.7774 17.996 71.6387 16.7647 70.1138C15.5338 68.586 14.9198 66.8707 14.9198 64.9697ZM17.8359 65.9364C17.8359 67.2892 18.205 68.4488 18.9365 69.4102C19.6712 70.3728 20.6021 71.0551 21.7318 71.4609C22.8584 71.8656 23.7859 71.8535 24.5109 71.4181C25.2326 70.9842 25.5951 70.0762 25.5951 68.6901C25.5951 67.3207 25.2423 66.1725 24.5403 65.2439C23.8349 64.3169 22.8978 63.6435 21.7318 63.2247C20.5627 62.8048 19.6222 62.8093 18.907 63.2344C18.1952 63.6607 17.8359 64.5587 17.8359 65.9364ZM33.8898 77.6874V67.7561L29.7293 66.2616V64.238L40.8748 68.2416V70.2651L36.7243 68.7741V78.7054L33.8898 77.6874ZM42.6155 80.8215V68.8667L45.4467 69.8836V81.8385L42.6155 80.8215Z" fill="white"/>
<path fill-rule="evenodd" clip-rule="evenodd" d="M11.5811 82.4427L11.6558 72.2412L14.0165 73.0761L13.9419 83.2777L11.5811 82.4427ZM23.883 86.7938L21.642 86.0013L21.6696 82.2294C21.6755 81.4313 21.6303 80.8987 21.5368 80.6298C21.4431 80.3632 21.2866 80.1245 21.0724 79.9177C20.8582 79.7133 20.6001 79.5554 20.2977 79.4486C19.9083 79.3109 19.5592 79.2802 19.2502 79.3567C18.9411 79.4354 18.7269 79.6049 18.6103 79.871C18.4937 80.1368 18.4323 80.6819 18.4263 81.5085L18.4018 84.8552L16.1609 84.0626L16.2149 76.6732L18.2953 77.409L18.2872 78.4945C19.034 77.9204 19.9683 77.8318 21.0902 78.2286C21.583 78.4029 22.0372 78.6421 22.4445 78.9409C22.8519 79.2422 23.1608 79.5492 23.3686 79.8656C23.5766 80.182 23.7215 80.5072 23.8009 80.8425C23.8833 81.1787 23.9208 81.6302 23.9166 82.2002L23.883 86.7938ZM25.2278 79.8611L26.4721 80.3012L26.4759 79.743C26.4806 79.123 26.56 78.6845 26.7148 78.4322C26.8697 78.1796 27.1491 78.0285 27.5562 77.9796C27.9661 77.9317 28.4813 78.0186 29.1022 78.2382C29.7421 78.4645 30.3651 78.7681 30.9765 79.1511L30.6642 80.4101C30.3081 80.2078 29.9652 80.0509 29.6358 79.9344C29.309 79.8188 29.0771 79.8011 28.9346 79.8839C28.792 79.9669 28.722 80.1969 28.7193 80.5722L28.7155 81.0947L30.3902 81.687L30.3789 83.2239L28.7043 82.6316L28.6614 88.4841L26.4179 87.6905L26.4608 81.838L25.2164 81.3979L25.2278 79.8611ZM31.1047 85.538C31.1094 84.8896 31.299 84.3255 31.6684 83.8466C32.0406 83.371 32.5639 83.0894 33.2388 83.009C33.9138 82.9262 34.6664 83.0306 35.497 83.3243C36.7768 83.777 37.8251 84.5121 38.6394 85.5287C39.4536 86.5455 39.8554 87.6068 39.8472 88.7161C39.839 89.8323 39.4184 90.6122 38.588 91.0568C37.7549 91.5004 36.712 91.4982 35.4567 91.0542C34.678 90.7788 33.9413 90.3658 33.2381 89.8099C32.5353 89.2541 32.0022 88.6154 31.6389 87.8939C31.2783 87.1734 31.0984 86.3884 31.1047 85.538ZM33.402 86.4554C33.3967 87.1892 33.5913 87.8201 33.9886 88.3513C34.3835 88.8813 34.8748 89.2505 35.4602 89.4576C36.0457 89.6646 36.5373 89.6432 36.935 89.3933C37.3353 89.1444 37.5382 88.6494 37.5436 87.9059C37.549 87.1838 37.3542 86.5554 36.9596 86.0253C36.5675 85.4961 36.0789 85.128 35.4934 84.9209C34.9081 84.7138 34.4138 84.7342 34.0133 84.9832C33.6103 85.2312 33.4073 85.7237 33.402 86.4554ZM43.7219 93.8109L41.481 93.0183L41.5352 85.6291L43.6154 86.3648L43.6077 87.4147C43.9679 87.0444 44.2918 86.8303 44.576 86.7736C44.8632 86.7181 45.1849 86.7509 45.547 86.8791C46.059 87.0601 46.5481 87.3569 47.0203 87.7716L46.3135 89.229C45.9391 88.8848 45.5888 88.6536 45.2647 88.539C44.9488 88.4273 44.6842 88.4074 44.4653 88.4824C44.2436 88.5541 44.0727 88.7675 43.9446 89.1175C43.8165 89.4674 43.7479 90.2719 43.7386 91.5283L43.7219 93.8109Z" fill="#1B1918"/>
<path fill-rule="evenodd" clip-rule="evenodd" d="M51.885 87.6593L53.7886 86.9693V87.9743C54.4683 86.9458 55.2809 86.2602 56.2212 85.9194C56.7203 85.7385 57.1543 85.6785 57.5204 85.74C57.8892 85.8009 58.1902 85.9856 58.4258 86.2937C58.767 85.7765 59.1381 85.3482 59.5344 85.0102C59.9307 84.6722 60.3545 84.4214 60.806 84.2578C61.3779 84.0506 61.8644 83.9856 62.2605 84.0625C62.6569 84.1368 62.9528 84.3543 63.1484 84.7077C63.2914 84.9712 63.3617 85.4554 63.3617 86.1593V90.8736L61.2976 91.6217V87.4075C61.2976 86.6751 61.2274 86.2289 61.0843 86.0674C60.8938 85.8591 60.6003 85.8256 60.204 85.9692C59.9132 86.0746 59.6423 86.2557 59.3865 86.5168C59.133 86.7745 58.95 87.0849 58.8372 87.4482C58.7243 87.8114 58.6666 88.3396 58.6666 89.034V92.5751L56.6025 93.3232V89.2819C56.6025 88.5639 56.565 88.1152 56.4921 87.9331C56.4194 87.7508 56.3041 87.6386 56.1511 87.5922C55.9955 87.5465 55.7875 87.5698 55.5216 87.6662C55.2031 87.7815 54.9171 87.9659 54.6638 88.2213C54.4081 88.4751 54.225 88.776 54.1146 89.1218C54.0042 89.4675 53.9491 89.9924 53.9491 90.7011V94.2848L51.885 95.033V87.6593ZM66.9632 84.444L65.0897 84.803C65.3005 84.0132 65.6616 83.3561 66.1757 82.826C66.6924 82.2975 67.4548 81.8482 68.468 81.481C69.391 81.1464 70.0757 81.0027 70.5271 81.0452C70.976 81.0887 71.2946 81.2339 71.4777 81.4852C71.6608 81.7365 71.7534 82.2836 71.7534 83.1321L71.7309 85.418C71.7309 86.0651 71.7636 86.5321 71.8312 86.8157C71.8965 87.0978 72.022 87.3841 72.2026 87.6694L70.1584 88.4103C70.1058 88.299 70.0381 88.1317 69.9603 87.9061C69.9276 87.8019 69.9026 87.735 69.8876 87.7026C69.5339 88.1554 69.1577 88.5336 68.7565 88.8425C68.3552 89.1491 67.9263 89.3851 67.4698 89.5507C66.6672 89.8415 66.0328 89.8652 65.5713 89.6224C65.1073 89.3781 64.8766 88.9403 64.8766 88.3099C64.8766 87.8951 64.9818 87.4849 65.1926 87.0814C65.4033 86.678 65.6991 86.3217 66.0779 86.0116C66.4566 85.7013 67.0059 85.3504 67.7207 84.9611C68.6838 84.4413 69.3533 84.0375 69.7245 83.7561V83.5617C69.7245 83.1849 69.6267 82.9548 69.4311 82.8646C69.2355 82.7767 68.8669 82.8296 68.3226 83.0269C67.9539 83.1605 67.6679 83.3328 67.4624 83.5448C67.2566 83.7545 67.0911 84.0539 66.9632 84.444ZM69.7245 85.0265C69.4612 85.205 69.0424 85.4562 68.468 85.7806C67.8962 86.1038 67.5225 86.3531 67.3443 86.5266C67.076 86.8064 66.9406 87.083 66.9406 87.3603C66.9406 87.6353 67.0485 87.8308 67.2642 87.9519C67.4798 88.0726 67.7532 88.0731 68.0868 87.9522C68.4606 87.8168 68.8142 87.5725 69.1527 87.22C69.4035 86.9536 69.5666 86.6788 69.6443 86.3947C69.6994 86.2088 69.7245 85.8821 69.7245 85.4152V85.0265ZM67.4924 81.0997L68.5058 78.6563L70.8206 77.8173L68.799 80.6262L67.4924 81.0997ZM77.3664 78.4243V79.9791L75.957 80.4899V83.4622C75.957 84.0642 75.9695 84.4105 75.9971 84.5002C76.0246 84.5896 76.0848 84.6484 76.1802 84.6801C76.2755 84.7097 76.3933 84.7 76.5288 84.651C76.7219 84.581 76.9978 84.4171 77.3615 84.1619L77.537 85.6105C77.0555 85.9795 76.5137 86.273 75.9043 86.4939C75.533 86.6285 75.197 86.691 74.8986 86.6829C74.6002 86.6726 74.3818 86.5976 74.2415 86.4613C74.1011 86.325 74.0057 86.1059 73.9506 85.8059C73.9079 85.5961 73.8853 85.1445 73.8853 84.4548V81.2407L72.9373 81.5843V80.0295L73.8853 79.6859V78.2187L75.957 76.3302V78.9351L77.3664 78.4243ZM78.801 76.9041V75.098L80.8652 74.3499V76.156L78.801 76.9041ZM78.801 85.278V77.9044L80.8652 77.1563V84.53L78.801 85.278ZM89.7862 76.1037L87.7497 77.1879C87.682 76.8285 87.5264 76.5957 87.2831 76.4895C87.0399 76.3833 86.7263 76.3997 86.3401 76.5397C85.8235 76.7269 85.4146 77.0434 85.1087 77.4885C84.8026 77.9359 84.6496 78.5531 84.6496 79.34C84.6496 80.2146 84.8052 80.7769 85.1162 81.0245C85.4271 81.2721 85.8435 81.3013 86.3677 81.1113C86.7614 80.9687 87.08 80.7488 87.3307 80.447C87.5816 80.1451 87.7572 79.719 87.8598 79.1697L89.889 78.759C89.6783 79.7147 89.272 80.528 88.675 81.1923C88.0782 81.859 87.2781 82.3717 86.2724 82.7363C85.1312 83.1499 84.2208 83.1408 83.5437 82.706C82.864 82.2722 82.5254 81.4514 82.5254 80.2473C82.5254 79.0315 82.8665 77.9598 83.5461 77.0356C84.2283 76.1081 85.1488 75.4356 86.31 75.0147C87.2605 74.6702 88.0154 74.591 88.5773 74.7738C89.1366 74.9574 89.5403 75.4012 89.7862 76.1037ZM92.8935 75.0464L91.02 75.4055C91.2307 74.6157 91.5918 73.9585 92.106 73.4284C92.6226 72.9 93.385 72.4506 94.3982 72.0834C95.3213 71.7488 96.0059 71.6051 96.4574 71.6477C96.9063 71.6911 97.2249 71.8364 97.4079 72.0877C97.5911 72.339 97.6837 72.8861 97.6837 73.7346L97.6612 76.0205C97.6612 76.6676 97.6939 77.1346 97.7615 77.4181C97.8268 77.7003 97.9522 77.9866 98.1328 78.2719L96.0887 79.0127C96.0361 78.9015 95.9684 78.734 95.8906 78.5085C95.8579 78.4042 95.8329 78.3375 95.8179 78.305C95.4642 78.7578 95.088 79.136 94.6868 79.445C94.2855 79.7516 93.8566 79.9876 93.4001 80.153C92.5975 80.444 91.963 80.4677 91.5016 80.2249C91.0376 79.9806 90.8069 79.5428 90.8069 78.9124C90.8069 78.4975 90.9121 78.0872 91.1228 77.6838C91.3335 77.2803 91.6296 76.9241 92.0081 76.614C92.3869 76.3036 92.9362 75.9529 93.6509 75.5636C94.6141 75.0438 95.2836 74.64 95.6548 74.3584V74.1641C95.6548 73.7872 95.5569 73.5572 95.3614 73.4669C95.1658 73.3791 94.7972 73.4321 94.2529 73.6293C93.8842 73.7629 93.5982 73.9353 93.3927 74.1473C93.1869 74.3569 93.0213 74.6564 92.8935 75.0464ZM95.6548 75.6288C95.3915 75.8073 94.9727 76.0587 94.3982 76.383C93.8264 76.7063 93.4528 76.9555 93.2748 77.1291C93.0063 77.4088 92.8709 77.6855 92.8709 77.9628C92.8709 78.2378 92.9787 78.4333 93.1944 78.5543C93.4102 78.6751 93.6835 78.6756 94.0171 78.5547C94.3909 78.4193 94.7444 78.175 95.083 77.8225C95.3338 77.5561 95.4968 77.2813 95.5746 76.9971C95.6298 76.8113 95.6548 76.4845 95.6548 76.0176V75.6288Z" fill="#1B1918"/>
<path fill-rule="evenodd" clip-rule="evenodd" d="M51.7107 38.8022L70.3583 31.4292L70.3432 58.8872L97.9986 47.3869V66.3522L51.8822 83.0988L51.7107 38.8022Z" fill="#1B1918"/>
<path fill-rule="evenodd" clip-rule="evenodd" d="M49.8156 0L69.1405 7.18672L41.9449 17.9506L68.8378 28.0823L49.5237 35.7346L1.7247 17.9935L49.8156 0Z" fill="#1B1918"/>
<path fill-rule="evenodd" clip-rule="evenodd" d="M60.3502 18.1779L79.5324 9.89751L97.4414 16.6639L78.4076 24.5031L60.3502 18.1779Z" fill="#004589"/>
<path fill-rule="evenodd" clip-rule="evenodd" d="M80.5963 28.9335L98.5582 21.2894L98.5687 38.2338L80.5515 45.4372L80.5963 28.9335Z" fill="#004589"/>
</svg>
